<?xml version="1.0" encoding="UTF-8"?>
<svg width="743px" height="229px" viewBox="0 0 743 229" version="1.1" xmlns="http://www.w3.org/2000/svg" xmlns:xlink="http://www.w3.org/1999/xlink">
    <title>Group 2</title>
    <g id="Page-1" stroke="none" stroke-width="1" fill="none" fill-rule="evenodd">
        <g id="LIFE_Logo-finale" transform="translate(-525.000000, -1285.000000)">
            <g id="Group-2" transform="translate(525.011000, 1285.149626)">
                <path d="M341.6479,194.549574 C338.7049,194.327574 337.2329,195.507574 337.2329,198.089574 L337.2329,198.298574 L341.6479,198.298574 L341.6479,203.464574 L337.2329,203.464574 L337.2329,219.129574 L331.8589,219.129574 L331.8589,203.464574 L328.8579,203.464574 L328.8579,198.298574 L331.8589,198.298574 L331.8589,198.089574 C331.8589,195.146574 332.6779,192.910574 334.3169,191.382574 C335.9539,189.855574 338.3989,189.189574 341.6479,189.383574 L341.6479,194.549574 Z" id="Fill-115" fill="#EC8423"></path>
                <path d="M350.7298,201.882274 C351.2308,200.548274 352.0568,199.548274 353.2088,198.881274 C354.3608,198.215274 355.6468,197.882274 357.0628,197.882274 L357.0628,203.881274 C355.4238,203.687274 353.9598,204.020274 352.6678,204.881274 C351.3768,205.742274 350.7298,207.172274 350.7298,209.173274 L350.7298,219.129274 L345.3558,219.129274 L345.3558,198.298274 L350.7298,198.298274 L350.7298,201.882274 Z" id="Fill-116" fill="#EC8423"></path>
                <path d="M367.3315,212.838474 C368.4005,213.921474 369.7395,214.463474 371.3515,214.463474 C372.9615,214.463474 374.3095,213.921474 375.3925,212.838474 C376.4755,211.755474 377.0165,210.380474 377.0165,208.714474 C377.0165,207.048474 376.4755,205.673474 375.3925,204.588474 C374.3095,203.506474 372.9615,202.964474 371.3515,202.964474 C369.7395,202.964474 368.4005,203.506474 367.3315,204.588474 C366.2605,205.673474 365.7275,207.048474 365.7275,208.714474 C365.7275,210.380474 366.2605,211.755474 367.3315,212.838474 M379.1835,216.525474 C377.0455,218.649474 374.4335,219.712474 371.3515,219.712474 C368.2675,219.712474 365.6635,218.649474 363.5395,216.525474 C361.4145,214.400474 360.3535,211.796474 360.3535,208.714474 C360.3535,205.630474 361.4145,203.026474 363.5395,200.902474 C365.6635,198.777474 368.2675,197.716474 371.3515,197.716474 C374.4335,197.716474 377.0455,198.777474 379.1835,200.902474 C381.3215,203.026474 382.3925,205.630474 382.3925,208.714474 C382.3925,211.796474 381.3215,214.400474 379.1835,216.525474" id="Fill-117" fill="#EC8423"></path>
                <path d="M410.4715,197.716074 C412.8595,197.716074 414.7685,198.494074 416.1995,200.049074 C417.6305,201.605074 418.3455,203.687074 418.3455,206.297074 L418.3455,219.129074 L412.9715,219.129074 L412.9715,206.673074 C412.9715,205.423074 412.6655,204.450074 412.0545,203.757074 C411.4445,203.063074 410.5815,202.715074 409.4715,202.715074 C408.2485,202.715074 407.2975,203.117074 406.6175,203.922074 C405.9375,204.729074 405.5965,205.895074 405.5965,207.422074 L405.5965,219.129074 L400.2225,219.129074 L400.2225,206.673074 C400.2225,205.423074 399.9165,204.450074 399.3055,203.757074 C398.6955,203.063074 397.8345,202.715074 396.7225,202.715074 C395.5285,202.715074 394.5785,203.117074 393.8695,203.922074 C393.1615,204.729074 392.8065,205.895074 392.8065,207.422074 L392.8065,219.129074 L387.4325,219.129074 L387.4325,198.298074 L392.8065,198.298074 L392.8065,200.507074 C394.0565,198.646074 395.9865,197.716074 398.5985,197.716074 C401.1525,197.716074 403.0425,198.716074 404.2635,200.715074 C405.6525,198.716074 407.7225,197.716074 410.4715,197.716074" id="Fill-118" fill="#EC8423"></path>
                <path d="M464.714,203.464074 L464.714,205.714074 C464.714,209.880074 463.381,213.255074 460.715,215.838074 C458.048,218.421074 454.604,219.713074 450.383,219.713074 C445.884,219.713074 442.155,218.247074 439.196,215.317074 C436.239,212.388074 434.76,208.811074 434.76,204.589074 C434.76,200.340074 436.224,196.743074 439.156,193.799074 C442.085,190.855074 445.716,189.384074 450.05,189.384074 C452.772,189.384074 455.257,190.002074 457.506,191.237074 C459.756,192.473074 461.507,194.118074 462.757,196.173074 L457.84,199.007074 C457.146,197.813074 456.097,196.840074 454.694,196.091074 C453.292,195.341074 451.73,194.966074 450.008,194.966074 C447.23,194.966074 444.946,195.876074 443.155,197.695074 C441.363,199.513074 440.468,201.813074 440.468,204.589074 C440.468,207.339074 441.377,209.610074 443.197,211.401074 C445.015,213.193074 447.425,214.088074 450.424,214.088074 C452.647,214.088074 454.486,213.595074 455.944,212.609074 C457.402,211.623074 458.396,210.269074 458.924,208.547074 L450.091,208.547074 L450.091,203.464074 L464.714,203.464074 Z" id="Fill-119" fill="#EC8423"></path>
                <path d="M473.2124,195.799574 C472.2954,195.799574 471.5114,195.472574 470.8604,194.819574 C470.2054,194.167574 469.8804,193.397574 469.8804,192.507574 C469.8804,191.619574 470.2054,190.841574 470.8604,190.175574 C471.5114,189.508574 472.2954,189.175574 473.2124,189.175574 C474.1024,189.175574 474.8714,189.508574 475.5254,190.175574 C476.1764,190.841574 476.5024,191.619574 476.5024,192.507574 C476.5024,193.397574 476.1764,194.167574 475.5254,194.819574 C474.8714,195.472574 474.1024,195.799574 473.2124,195.799574 M470.5044,219.545574 L470.5044,198.298574 L475.8784,198.298574 L475.8784,219.545574 C475.8784,222.600574 475.1364,224.828574 473.6494,226.232574 C472.1634,227.635574 469.8804,228.238574 466.7984,228.045574 L466.7984,222.879574 C468.0734,222.962574 469.0114,222.739574 469.6084,222.212574 C470.2054,221.683574 470.5044,220.795574 470.5044,219.545574" id="Fill-120" fill="#EC8423"></path>
                <path d="M482.045,219.129374 L487.419,219.129374 L487.419,198.298374 L482.045,198.298374 L482.045,219.129374 Z M484.711,195.799374 C483.822,195.799374 483.053,195.472374 482.398,194.819374 C481.747,194.168374 481.421,193.397374 481.421,192.508374 C481.421,191.619374 481.747,190.841374 482.398,190.175374 C483.053,189.508374 483.822,189.175374 484.711,189.175374 C485.628,189.175374 486.412,189.508374 487.064,190.175374 C487.718,190.841374 488.044,191.619374 488.044,192.508374 C488.044,193.397374 487.718,194.168374 487.064,194.819374 C486.412,195.472374 485.628,195.799374 484.711,195.799374 L484.711,195.799374 Z" id="Fill-121" fill="#EC8423"></path>
                <path d="M498.9577,201.882274 C499.4587,200.548274 500.2847,199.548274 501.4367,198.881274 C502.5887,198.215274 503.8767,197.882274 505.2907,197.882274 L505.2907,203.881274 C503.6527,203.687274 502.1877,204.020274 500.8967,204.881274 C499.6057,205.742274 498.9577,207.172274 498.9577,209.173274 L498.9577,219.129274 L493.5837,219.129274 L493.5837,198.298274 L498.9577,198.298274 L498.9577,201.882274 Z" id="Fill-122" fill="#EC8423"></path>
                <path d="M515.5804,212.942474 C516.6634,214.040474 518.0384,214.587474 519.7064,214.587474 C521.3704,214.587474 522.7514,214.040474 523.8494,212.942474 C524.9474,211.846474 525.4964,210.436474 525.4964,208.714474 C525.4964,206.992474 524.9474,205.582474 523.8494,204.484474 C522.7514,203.388474 521.3704,202.839474 519.7064,202.839474 C518.0384,202.839474 516.6634,203.388474 515.5804,204.484474 C514.4974,205.582474 513.9554,206.992474 513.9554,208.714474 C513.9554,210.436474 514.4974,211.846474 515.5804,212.942474 L515.5804,212.942474 Z M525.4964,198.298474 L530.8704,198.298474 L530.8704,219.129474 L525.4964,219.129474 L525.4964,216.671474 C523.8854,218.699474 521.6214,219.712474 518.7044,219.712474 C515.9274,219.712474 513.5444,218.649474 511.5604,216.525474 C509.5734,214.400474 508.5804,211.796474 508.5804,208.714474 C508.5804,205.630474 509.5734,203.026474 511.5604,200.902474 C513.5444,198.777474 515.9274,197.716474 518.7044,197.716474 C521.6214,197.716474 523.8854,198.729474 525.4964,200.757474 L525.4964,198.298474 Z" id="Fill-123" fill="#EC8423"></path>
                <path d="M548.2016,194.549574 C545.2586,194.327574 543.7866,195.507574 543.7866,198.089574 L543.7866,198.298574 L548.2016,198.298574 L548.2016,203.464574 L543.7866,203.464574 L543.7866,219.129574 L538.4126,219.129574 L538.4126,203.464574 L535.4116,203.464574 L535.4116,198.298574 L538.4126,198.298574 L538.4126,198.089574 C538.4126,195.146574 539.2296,192.910574 540.8706,191.382574 C542.5076,189.855574 544.9506,189.189574 548.2016,189.383574 L548.2016,194.549574 Z" id="Fill-124" fill="#EC8423"></path>
                <path d="M557.8248,212.942474 C558.9078,214.040474 560.2828,214.587474 561.9508,214.587474 C563.6148,214.587474 564.9968,214.040474 566.0938,212.942474 C567.1918,211.846474 567.7408,210.436474 567.7408,208.714474 C567.7408,206.992474 567.1918,205.582474 566.0938,204.484474 C564.9968,203.388474 563.6148,202.839474 561.9508,202.839474 C560.2828,202.839474 558.9078,203.388474 557.8248,204.484474 C556.7418,205.582474 556.1998,206.992474 556.1998,208.714474 C556.1998,210.436474 556.7418,211.846474 557.8248,212.942474 L557.8248,212.942474 Z M567.7408,198.298474 L573.1148,198.298474 L573.1148,219.129474 L567.7408,219.129474 L567.7408,216.671474 C566.1298,218.699474 563.8658,219.712474 560.9488,219.712474 C558.1718,219.712474 555.7888,218.649474 553.8048,216.525474 C551.8178,214.400474 550.8248,211.796474 550.8248,208.714474 C550.8248,205.630474 551.8178,203.026474 553.8048,200.902474 C555.7888,198.777474 558.1718,197.716474 560.9488,197.716474 C563.8658,197.716474 566.1298,198.729474 567.7408,200.757474 L567.7408,198.298474 Z" id="Fill-125" fill="#EC8423"></path>
                <path d="M340.5692,165.321874 C343.0042,165.321874 345.2352,164.502874 347.2652,162.864874 C349.2932,161.228874 350.5452,159.039874 351.0222,156.295874 C351.4972,153.637874 351.0012,151.497874 349.5312,149.873874 C348.0622,148.250874 346.1242,147.439874 343.7172,147.439874 C341.2832,147.466874 339.0512,148.292874 337.0232,149.915874 C334.9932,151.538874 333.7412,153.692874 333.2662,156.380874 C332.7882,159.066874 333.2872,161.228874 334.7562,162.864874 C336.2252,164.502874 338.1622,165.321874 340.5692,165.321874 M340.3592,167.336874 C337.3922,167.336874 334.9722,166.301874 333.0972,164.229874 C331.2222,162.158874 330.5642,159.472874 331.1252,156.170874 C331.7112,152.894874 333.2662,150.286874 335.7852,148.341874 C338.3022,146.396874 341.0732,145.424874 344.0952,145.424874 C347.0342,145.424874 349.4112,146.466874 351.2322,148.551874 C353.0502,150.635874 353.6812,153.302874 353.1202,156.547874 C352.5342,159.877874 351.0072,162.509874 348.5452,164.440874 C346.0832,166.369874 343.3542,167.336874 340.3592,167.336874" id="Fill-126" fill="#FFFFFF"></path>
                <path d="M362.6055,144.751674 C363.0885,142.037674 364.1655,140.023674 365.8385,138.707674 C367.5095,137.391674 369.7035,136.832674 372.4185,137.028674 L372.0405,139.043674 C367.9275,138.707674 365.5055,140.612674 364.7785,144.757674 L364.5805,145.884674 L370.8345,145.884674 L370.4985,147.942674 L364.2155,147.942674 L360.8795,166.874674 L358.7035,166.874674 L362.0435,147.942674 L358.3905,147.942674 L358.7695,145.884674 L362.4065,145.884674 L362.6055,144.751674 Z" id="Fill-127" fill="#FFFFFF"></path>
                <polygon id="Fill-128" fill="#FFFFFF" points="334.6514 108.062974 345.8594 108.062974 345.8594 113.603974 328.8584 113.603974 328.8584 84.2199737 334.6514 84.2199737"></polygon>
                <path d="M354.6305,101.136374 L365.3355,101.136374 C365.0275,99.7093737 364.3905,98.6463737 363.4255,97.9453737 C362.4595,97.2473737 361.3615,96.8973737 360.1305,96.8973737 C358.6745,96.8973737 357.4715,97.2683737 356.5205,98.0093737 C355.5675,98.7513737 354.9385,99.7933737 354.6305,101.136374 L354.6305,101.136374 Z M354.7155,105.334374 C355.4415,107.965374 357.4155,109.280374 360.6335,109.280374 C362.7045,109.280374 364.2725,108.581374 365.3355,107.181374 L369.7005,109.699374 C367.6295,112.695374 364.5805,114.192374 360.5495,114.192374 C357.0795,114.192374 354.2945,113.142374 352.1965,111.044374 C350.0965,108.944374 349.0485,106.300374 349.0485,103.110374 C349.0485,99.9463737 350.0835,97.3103737 352.1535,95.1973737 C354.2245,93.0843737 356.8835,92.0283737 360.1305,92.0283737 C363.2085,92.0283737 365.7475,93.0913737 367.7495,95.2173737 C369.7495,97.3443737 370.7505,99.9753737 370.7505,103.110374 C370.7505,103.809374 370.6805,104.551374 370.5405,105.334374 L354.7155,105.334374 Z" id="Fill-129" fill="#FFFFFF"></path>
                <path d="M386.1156,109.028174 C387.7946,109.028174 389.1856,108.476174 390.2926,107.370174 C391.3966,106.265174 391.9496,104.845174 391.9496,103.110174 C391.9496,101.375174 391.3966,99.9541737 390.2926,98.8481737 C389.1856,97.7441737 387.7946,97.1911737 386.1156,97.1911737 C384.4366,97.1911737 383.0506,97.7441737 381.9586,98.8481737 C380.8676,99.9541737 380.3226,101.375174 380.3226,103.110174 C380.3226,104.845174 380.8676,106.265174 381.9586,107.370174 C383.0506,108.476174 384.4366,109.028174 386.1156,109.028174 Z M391.9496,92.6141737 L397.3646,92.6141737 L397.3646,113.604174 L391.9496,113.604174 L391.9496,111.127174 C390.3266,113.171174 388.0466,114.192174 385.1086,114.192174 C382.3096,114.192174 379.9086,113.121174 377.9086,110.980174 C375.9076,108.839174 374.9076,106.215174 374.9076,103.110174 C374.9076,100.003174 375.9076,97.3791737 377.9086,95.2381737 C379.9086,93.0971737 382.3096,92.0281737 385.1086,92.0281737 C388.0466,92.0281737 390.3266,93.0491737 391.9496,95.0921737 L391.9496,92.6141737 Z" id="Fill-130" fill="#FFFFFF"></path>
                <path d="M409.896,107.370174 C411.001,108.476174 412.394,109.028174 414.073,109.028174 C415.751,109.028174 417.137,108.476174 418.228,107.370174 C419.319,106.265174 419.866,104.845174 419.866,103.110174 C419.866,101.375174 419.319,99.9541737 418.228,98.8481737 C417.137,97.7441737 415.751,97.1911737 414.073,97.1911737 C412.394,97.1911737 411.001,97.7441737 409.896,98.8481737 C408.79,99.9541737 408.237,101.375174 408.237,103.110174 C408.237,104.845174 408.79,106.265174 409.896,107.370174 L409.896,107.370174 Z M419.866,84.2201737 L425.281,84.2201737 L425.281,113.604174 L419.866,113.604174 L419.866,111.127174 C418.271,113.171174 416.004,114.192174 413.065,114.192174 C410.238,114.192174 407.824,113.121174 405.824,110.980174 C403.822,108.839174 402.822,106.215174 402.822,103.110174 C402.822,100.003174 403.822,97.3791737 405.824,95.2381737 C407.824,93.0971737 410.238,92.0281737 413.065,92.0281737 C416.004,92.0281737 418.271,93.0491737 419.866,95.0921737 L419.866,84.2201737 Z" id="Fill-131" fill="#FFFFFF"></path>
                <path d="M436.4021,101.136374 L447.1071,101.136374 C446.7991,99.7093737 446.1621,98.6463737 445.1971,97.9453737 C444.2311,97.2473737 443.1331,96.8973737 441.9021,96.8973737 C440.4461,96.8973737 439.2431,97.2683737 438.2921,98.0093737 C437.3391,98.7513737 436.7101,99.7933737 436.4021,101.136374 L436.4021,101.136374 Z M436.4871,105.334374 C437.2131,107.965374 439.1871,109.280374 442.4051,109.280374 C444.4761,109.280374 446.0441,108.581374 447.1071,107.181374 L451.4721,109.699374 C449.4011,112.695374 446.3521,114.192374 442.3211,114.192374 C438.8511,114.192374 436.0661,113.142374 433.9681,111.044374 C431.8681,108.944374 430.8201,106.300374 430.8201,103.110374 C430.8201,99.9463737 431.8551,97.3103737 433.9251,95.1973737 C435.9961,93.0843737 438.6551,92.0283737 441.9021,92.0283737 C444.9801,92.0283737 447.5191,93.0913737 449.5211,95.2173737 C451.5211,97.3443737 452.5221,99.9753737 452.5221,103.110374 C452.5221,103.809374 452.4521,104.551374 452.3121,105.334374 L436.4871,105.334374 Z" id="Fill-132" fill="#FFFFFF"></path>
                <path d="M463.3519,96.2259737 C463.8559,94.8809737 464.6889,93.8739737 465.8499,93.2029737 C467.0109,92.5309737 468.3079,92.1949737 469.7329,92.1949737 L469.7329,98.2409737 C468.0829,98.0449737 466.6059,98.3799737 465.3059,99.2479737 C464.0049,100.114974 463.3519,101.555974 463.3519,103.571974 L463.3519,113.603974 L457.9369,113.603974 L457.9369,92.6149737 L463.3519,92.6149737 L463.3519,96.2259737 Z" id="Fill-133" fill="#FFFFFF"></path>
                <path d="M478.8855,98.5763737 C478.8855,99.1353737 479.2565,99.5913737 479.9975,99.9403737 C480.7395,100.290374 481.6415,100.598374 482.7055,100.864374 C483.7685,101.130374 484.8325,101.466374 485.8955,101.871374 C486.9595,102.277374 487.8615,102.956374 488.6035,103.907374 C489.3445,104.858374 489.7155,106.048374 489.7155,107.475374 C489.7155,109.631374 488.9095,111.288374 487.3025,112.449374 C485.6925,113.610374 483.6835,114.192374 481.2765,114.192374 C476.9685,114.192374 474.0295,112.526374 472.4615,109.196374 L477.1625,106.551374 C477.7795,108.371374 479.1495,109.280374 481.2765,109.280374 C483.2095,109.280374 484.1725,108.678374 484.1725,107.475374 C484.1725,106.916374 483.8025,106.461374 483.0605,106.110374 C482.3195,105.761374 481.4165,105.446374 480.3535,105.167374 C479.2895,104.887374 478.2265,104.536374 477.1625,104.117374 C476.0995,103.698374 475.1965,103.032374 474.4555,102.122374 C473.7135,101.214374 473.3425,100.073374 473.3425,98.7023737 C473.3425,96.6313737 474.1055,95.0013737 475.6315,93.8113737 C477.1565,92.6223737 479.0525,92.0283737 481.3195,92.0283737 C483.0275,92.0283737 484.5795,92.4123737 485.9775,93.1813737 C487.3785,93.9513737 488.4845,95.0503737 489.2955,96.4763737 L484.6775,98.9953737 C484.0055,97.5693737 482.8875,96.8553737 481.3195,96.8553737 C480.6205,96.8553737 480.0405,97.0083737 479.5785,97.3163737 C479.1165,97.6253737 478.8855,98.0443737 478.8855,98.5763737" id="Fill-134" fill="#FFFFFF"></path>
                <path d="M506.5464,92.0280737 C508.8404,92.0280737 510.7364,92.7970737 512.2344,94.3360737 C513.7324,95.8750737 514.4804,98.0020737 514.4804,100.717074 L514.4804,113.604074 L509.0654,113.604074 L509.0654,101.389074 C509.0654,99.9890737 508.6884,98.9200737 507.9324,98.1770737 C507.1754,97.4350737 506.1694,97.0650737 504.9084,97.0650737 C503.5104,97.0650737 502.3924,97.4990737 501.5504,98.3670737 C500.7124,99.2340737 500.2924,100.535074 500.2924,102.270074 L500.2924,113.604074 L494.8784,113.604074 L494.8784,84.2200737 L500.2924,84.2200737 L500.2924,94.9660737 C501.6084,93.0080737 503.6934,92.0280737 506.5464,92.0280737" id="Fill-135" fill="#FFFFFF"></path>
                <path d="M520.737,113.603374 L526.152,113.603374 L526.152,92.6143737 L520.737,92.6143737 L520.737,113.603374 Z M523.423,90.0973737 C522.527,90.0973737 521.752,89.7673737 521.092,89.1093737 C520.436,88.4533737 520.108,87.6763737 520.108,86.7803737 C520.108,85.8853737 520.436,85.1013737 521.092,84.4303737 C521.752,83.7583737 522.527,83.4223737 523.423,83.4223737 C524.347,83.4223737 525.137,83.7583737 525.793,84.4303737 C526.453,85.1013737 526.781,85.8853737 526.781,86.7803737 C526.781,87.6763737 526.453,88.4533737 525.793,89.1093737 C525.137,89.7673737 524.347,90.0973737 523.423,90.0973737 L523.423,90.0973737 Z" id="Fill-136" fill="#FFFFFF"></path>
                <path d="M539.7953,107.370174 C540.8863,108.476174 542.2713,109.028174 543.9493,109.028174 C545.6293,109.028174 547.0213,108.476174 548.1273,107.370174 C549.2333,106.265174 549.7863,104.845174 549.7863,103.110174 C549.7863,101.375174 549.2333,99.9541737 548.1273,98.8481737 C547.0213,97.7441737 545.6293,97.1911737 543.9493,97.1911737 C542.2713,97.1911737 540.8863,97.7441737 539.7953,98.8481737 C538.7013,99.9541737 538.1573,101.375174 538.1573,103.110174 C538.1573,104.845174 538.7013,106.265174 539.7953,107.370174 M544.9583,92.0281737 C547.7843,92.0281737 550.1963,93.0971737 552.1993,95.2381737 C554.1983,97.3791737 555.2013,100.003174 555.2013,103.110174 C555.2013,106.215174 554.1983,108.839174 552.1993,110.980174 C550.1963,113.121174 547.7843,114.192174 544.9583,114.192174 C542.0193,114.192174 539.7523,113.171174 538.1573,111.127174 L538.1573,122.000174 L532.7423,122.000174 L532.7423,92.6141737 L538.1573,92.6141737 L538.1573,95.0921737 C539.7523,93.0491737 542.0193,92.0281737 544.9583,92.0281737" id="Fill-137" fill="#FFFFFF"></path>
                <polygon id="Fill-138" fill="#FFFFFF" points="573.081 113.604374 578.876 113.604374 578.876 84.2203737 573.081 84.2203737"></polygon>
                <path d="M597.4293,92.0280737 C599.7233,92.0280737 601.6193,92.7970737 603.1173,94.3360737 C604.6123,95.8750737 605.3633,98.0020737 605.3633,100.717074 L605.3633,113.604074 L599.9483,113.604074 L599.9483,101.389074 C599.9483,99.9890737 599.5683,98.9200737 598.8153,98.1770737 C598.0583,97.4350737 597.0493,97.0650737 595.7913,97.0650737 C594.3903,97.0650737 593.2723,97.4990737 592.4343,98.3670737 C591.5953,99.2340737 591.1733,100.535074 591.1733,102.270074 L591.1733,113.604074 L585.7583,113.604074 L585.7583,92.6140737 L591.1733,92.6140737 L591.1733,94.9660737 C592.4883,93.0080737 594.5733,92.0280737 597.4293,92.0280737" id="Fill-139" fill="#FFFFFF"></path>
                <path d="M616.6124,98.5763737 C616.6124,99.1353737 616.9834,99.5913737 617.7244,99.9403737 C618.4664,100.290374 619.3684,100.598374 620.4324,100.864374 C621.4954,101.130374 622.5594,101.466374 623.6224,101.871374 C624.6864,102.277374 625.5884,102.956374 626.3304,103.907374 C627.0714,104.858374 627.4424,106.048374 627.4424,107.475374 C627.4424,109.631374 626.6364,111.288374 625.0294,112.449374 C623.4194,113.610374 621.4104,114.192374 619.0034,114.192374 C614.6954,114.192374 611.7564,112.526374 610.1884,109.196374 L614.8894,106.551374 C615.5064,108.371374 616.8764,109.280374 619.0034,109.280374 C620.9364,109.280374 621.8994,108.678374 621.8994,107.475374 C621.8994,106.916374 621.5294,106.461374 620.7874,106.110374 C620.0464,105.761374 619.1434,105.446374 618.0804,105.167374 C617.0164,104.887374 615.9534,104.536374 614.8894,104.117374 C613.8264,103.698374 612.9234,103.032374 612.1824,102.122374 C611.4404,101.214374 611.0694,100.073374 611.0694,98.7023737 C611.0694,96.6313737 611.8324,95.0013737 613.3584,93.8113737 C614.8834,92.6223737 616.7794,92.0283737 619.0464,92.0283737 C620.7544,92.0283737 622.3064,92.4123737 623.7044,93.1813737 C625.1054,93.9513737 626.2114,95.0503737 627.0224,96.4763737 L622.4044,98.9953737 C621.7324,97.5693737 620.6144,96.8553737 619.0464,96.8553737 C618.3474,96.8553737 617.7674,97.0083737 617.3054,97.3163737 C616.8434,97.6253737 616.6124,98.0443737 616.6124,98.5763737" id="Fill-140" fill="#FFFFFF"></path>
                <path d="M643.939,97.8197737 L639.196,97.8197737 L639.196,106.551774 C639.196,107.278774 639.378,107.810774 639.743,108.146774 C640.104,108.482774 640.636,108.672774 641.338,108.713774 C642.037,108.755774 642.903,108.749774 643.939,108.691774 L643.939,113.603774 C640.217,114.023774 637.594,113.673774 636.069,112.553774 C634.543,111.435774 633.781,109.434774 633.781,106.551774 L633.781,97.8197737 L630.128,97.8197737 L630.128,92.6147737 L633.781,92.6147737 L633.781,88.3757737 L639.196,86.7377737 L639.196,92.6147737 L643.939,92.6147737 L643.939,97.8197737 Z" id="Fill-141" fill="#FFFFFF"></path>
                <path d="M649.439,113.603374 L654.854,113.603374 L654.854,92.6143737 L649.439,92.6143737 L649.439,113.603374 Z M652.125,90.0973737 C651.229,90.0973737 650.454,89.7673737 649.794,89.1093737 C649.138,88.4533737 648.81,87.6763737 648.81,86.7803737 C648.81,85.8853737 649.138,85.1013737 649.794,84.4303737 C650.454,83.7583737 651.229,83.4223737 652.125,83.4223737 C653.049,83.4223737 653.839,83.7583737 654.495,84.4303737 C655.155,85.1013737 655.483,85.8853737 655.483,86.7803737 C655.483,87.6763737 655.155,88.4533737 654.495,89.1093737 C653.839,89.7673737 653.049,90.0973737 652.125,90.0973737 L652.125,90.0973737 Z" id="Fill-142" fill="#FFFFFF"></path>
                <path d="M673.4473,97.8197737 L668.7043,97.8197737 L668.7043,106.551774 C668.7043,107.278774 668.8863,107.810774 669.2513,108.146774 C669.6123,108.482774 670.1443,108.672774 670.8463,108.713774 C671.5453,108.755774 672.4113,108.749774 673.4473,108.691774 L673.4473,113.603774 C669.7253,114.023774 667.1023,113.673774 665.5773,112.553774 C664.0513,111.435774 663.2893,109.434774 663.2893,106.551774 L663.2893,97.8197737 L659.6363,97.8197737 L659.6363,92.6147737 L663.2893,92.6147737 L663.2893,88.3757737 L668.7043,86.7377737 L668.7043,92.6147737 L673.4473,92.6147737 L673.4473,97.8197737 Z" id="Fill-143" fill="#FFFFFF"></path>
                <path d="M693.1378,92.6145737 L698.5528,92.6145737 L698.5528,113.603574 L693.1378,113.603574 L693.1378,111.253574 C691.8218,113.211574 689.7378,114.191574 686.8808,114.191574 C684.5868,114.191574 682.6908,113.421574 681.1928,111.882574 C679.6978,110.343574 678.9468,108.216574 678.9468,105.502574 L678.9468,92.6145737 L684.3618,92.6145737 L684.3618,104.831574 C684.3618,106.230574 684.7418,107.300574 685.4958,108.041574 C686.2518,108.783574 687.2608,109.153574 688.5188,109.153574 C689.9168,109.153574 691.0378,108.720574 691.8768,107.853574 C692.7158,106.985574 693.1378,105.685574 693.1378,103.948574 L693.1378,92.6145737 Z" id="Fill-144" fill="#FFFFFF"></path>
                <path d="M717.1887,97.8197737 L712.4457,97.8197737 L712.4457,106.551774 C712.4457,107.278774 712.6277,107.810774 712.9927,108.146774 C713.3537,108.482774 713.8857,108.672774 714.5877,108.713774 C715.2867,108.755774 716.1527,108.749774 717.1887,108.691774 L717.1887,113.603774 C713.4667,114.023774 710.8437,113.673774 709.3187,112.553774 C707.7927,111.435774 707.0307,109.434774 707.0307,106.551774 L707.0307,97.8197737 L703.3777,97.8197737 L703.3777,92.6147737 L707.0307,92.6147737 L707.0307,88.3757737 L712.4457,86.7377737 L712.4457,92.6147737 L717.1887,92.6147737 L717.1887,97.8197737 Z" id="Fill-145" fill="#FFFFFF"></path>
                <path d="M726.5082,101.136374 L737.2132,101.136374 C736.9032,99.7093737 736.2682,98.6463737 735.3022,97.9453737 C734.3362,97.2473737 733.2392,96.8973737 732.0082,96.8973737 C730.5522,96.8973737 729.3492,97.2683737 728.3982,98.0093737 C727.4442,98.7513737 726.8152,99.7933737 726.5082,101.136374 L726.5082,101.136374 Z M726.5932,105.334374 C727.3192,107.965374 729.2912,109.280374 732.5092,109.280374 C734.5822,109.280374 736.1502,108.581374 737.2132,107.181374 L741.5772,109.699374 C739.5072,112.695374 736.4572,114.192374 732.4272,114.192374 C728.9572,114.192374 726.1712,113.142374 724.0742,111.044374 C721.9742,108.944374 720.9262,106.300374 720.9262,103.110374 C720.9262,99.9463737 721.9592,97.3103737 724.0322,95.1973737 C726.1012,93.0843737 728.7602,92.0283737 732.0082,92.0283737 C735.0862,92.0283737 737.6232,93.0913737 739.6262,95.2173737 C741.6252,97.3443737 742.6282,99.9753737 742.6282,103.110374 C742.6282,103.809374 742.5582,104.551374 742.4182,105.334374 L726.5932,105.334374 Z" id="Fill-146" fill="#FFFFFF"></path>
                <polygon id="Fill-147" fill="#FFFFFF" points="403.8309 143.031874 392.0769 143.031874 392.0769 149.999874 403.4949 149.999874 403.4949 155.540874 392.0769 155.540874 392.0769 166.874874 386.2839 166.874874 386.2839 137.490874 403.8309 137.490874"></polygon>
                <path d="M423.3511,145.885074 L428.7661,145.885074 L428.7661,166.875074 L423.3511,166.875074 L423.3511,164.524074 C422.0351,166.483074 419.9511,167.462074 417.0961,167.462074 C414.8001,167.462074 412.9041,166.692074 411.4081,165.153074 C409.9111,163.614074 409.1621,161.487074 409.1621,158.773074 L409.1621,145.885074 L414.5771,145.885074 L414.5771,158.102074 C414.5771,159.501074 414.9551,160.571074 415.7101,161.312074 C416.4671,162.054074 417.4741,162.424074 418.7341,162.424074 C420.1321,162.424074 421.2511,161.991074 422.0911,161.124074 C422.9301,160.256074 423.3511,158.956074 423.3511,157.219074 L423.3511,145.885074 Z" id="Fill-148" fill="#FFFFFF"></path>
                <path d="M447.361,151.090374 L442.618,151.090374 L442.618,159.822374 C442.618,160.549374 442.8,161.081374 443.163,161.417374 C443.526,161.753374 444.058,161.943374 444.758,161.984374 C445.457,162.026374 446.325,162.020374 447.361,161.962374 L447.361,166.874374 C443.639,167.294374 441.015,166.944374 439.491,165.824374 C437.964,164.706374 437.203,162.705374 437.203,159.822374 L437.203,151.090374 L433.55,151.090374 L433.55,145.885374 L437.203,145.885374 L437.203,141.646374 L442.618,140.008374 L442.618,145.885374 L447.361,145.885374 L447.361,151.090374 Z" id="Fill-149" fill="#FFFFFF"></path>
                <path d="M467.05,145.885074 L472.465,145.885074 L472.465,166.875074 L467.05,166.875074 L467.05,164.524074 C465.734,166.483074 463.65,167.462074 460.793,167.462074 C458.498,167.462074 456.602,166.692074 455.105,165.153074 C453.609,163.614074 452.86,161.487074 452.86,158.773074 L452.86,145.885074 L458.274,145.885074 L458.274,158.102074 C458.274,159.501074 458.653,160.571074 459.408,161.312074 C460.164,162.054074 461.172,162.424074 462.431,162.424074 C463.829,162.424074 464.95,161.991074 465.789,161.124074 C466.628,160.256074 467.05,158.956074 467.05,157.219074 L467.05,145.885074 Z" id="Fill-150" fill="#FFFFFF"></path>
                <path d="M484.4706,149.496574 C484.9746,148.151574 485.8076,147.144574 486.9686,146.473574 C488.1296,145.801574 489.4236,145.465574 490.8516,145.465574 L490.8516,151.511574 C489.1986,151.315574 487.7246,151.650574 486.4216,152.518574 C485.1206,153.385574 484.4706,154.826574 484.4706,156.842574 L484.4706,166.874574 L479.0556,166.874574 L479.0556,145.885574 L484.4706,145.885574 L484.4706,149.496574 Z" id="Fill-151" fill="#FFFFFF"></path>
                <path d="M499.3721,154.406974 L510.0771,154.406974 C509.7671,152.979974 509.1321,151.916974 508.1661,151.215974 C507.2001,150.517974 506.1031,150.167974 504.8721,150.167974 C503.4161,150.167974 502.2131,150.538974 501.2621,151.279974 C500.3081,152.021974 499.6791,153.063974 499.3721,154.406974 L499.3721,154.406974 Z M499.4571,158.604974 C500.1831,161.235974 502.1551,162.550974 505.3731,162.550974 C507.4461,162.550974 509.0141,161.851974 510.0771,160.451974 L514.4411,162.969974 C512.3711,165.965974 509.3211,167.462974 505.2911,167.462974 C501.8211,167.462974 499.0351,166.412974 496.9381,164.314974 C494.8381,162.214974 493.7901,159.570974 493.7901,156.380974 C493.7901,153.216974 494.8231,150.580974 496.8961,148.467974 C498.9651,146.354974 501.6241,145.298974 504.8721,145.298974 C507.9501,145.298974 510.4871,146.361974 512.4901,148.487974 C514.4891,150.614974 515.4921,153.245974 515.4921,156.380974 C515.4921,157.078974 515.4221,157.821974 515.2821,158.604974 L499.4571,158.604974 Z" id="Fill-152" fill="#FFFFFF"></path>
                <polygon id="Fill-153" fill="#FFFFFF" points="539.1238 161.333574 551.5058 161.333574 551.5058 166.874574 533.3318 166.874574 533.3318 137.490574 551.2968 137.490574 551.2968 143.031574 539.1238 143.031574 539.1238 149.285574 550.2488 149.285574 550.2488 154.742574 539.1238 154.742574"></polygon>
                <path d="M568.6747,145.298674 C570.9687,145.298674 572.8647,146.067674 574.3627,147.606674 C575.8607,149.145674 576.6087,151.272674 576.6087,153.987674 L576.6087,166.874674 L571.1937,166.874674 L571.1937,154.659674 C571.1937,153.259674 570.8167,152.190674 570.0607,151.447674 C569.3037,150.705674 568.2977,150.335674 567.0367,150.335674 C565.6387,150.335674 564.5207,150.769674 563.6787,151.637674 C562.8407,152.504674 562.4207,153.805674 562.4207,155.540674 L562.4207,166.874674 L557.0067,166.874674 L557.0067,145.884674 L562.4207,145.884674 L562.4207,148.236674 C563.7367,146.278674 565.8217,145.298674 568.6747,145.298674" id="Fill-154" fill="#FFFFFF"></path>
                <path d="M588.8452,160.178974 C589.9512,161.255974 591.3582,161.795974 593.0662,161.795974 C594.7702,161.795974 596.1772,161.255974 597.2832,160.178974 C598.3892,159.101974 598.9422,157.723974 598.9422,156.044974 C598.9422,154.392974 598.3892,153.028974 597.2832,151.951974 C596.1772,150.874974 594.7702,150.334974 593.0662,150.334974 C591.3582,150.334974 589.9512,150.874974 588.8452,151.951974 C587.7392,153.028974 587.1892,154.392974 587.1892,156.044974 C587.1892,157.723974 587.7392,159.101974 588.8452,160.178974 L588.8452,160.178974 Z M598.9422,145.884974 L604.2302,145.884974 L604.2302,165.866974 C604.2302,169.112974 603.1602,171.590974 601.0212,173.296974 C598.8792,175.004974 596.2962,175.857974 593.2752,175.857974 C591.0082,175.857974 589.0152,175.423974 587.2922,174.555974 C585.5722,173.688974 584.2512,172.415974 583.3272,170.736974 L587.9432,168.091974 C589.0062,170.049974 590.8412,171.029974 593.4422,171.029974 C595.1502,171.029974 596.4932,170.581974 597.4722,169.686974 C598.4532,168.790974 598.9422,167.518974 598.9422,165.866974 L598.9422,163.600974 C597.3472,165.727974 595.1082,166.790974 592.2242,166.790974 C589.2582,166.790974 586.7762,165.748974 584.7732,163.662974 C582.7742,161.577974 581.7742,159.039974 581.7742,156.044974 C581.7742,153.078974 582.7802,150.544974 584.7942,148.446974 C586.8092,146.346974 589.2862,145.298974 592.2242,145.298974 C595.1082,145.298974 597.3472,146.361974 598.9422,148.487974 L598.9422,145.884974 Z" id="Fill-155" fill="#FFFFFF"></path>
                <path d="M610.821,166.875374 L616.236,166.875374 L616.236,145.885374 L610.821,145.885374 L610.821,166.875374 Z M613.507,143.367374 C612.614,143.367374 611.836,143.038374 611.179,142.380374 C610.52,141.723374 610.192,140.947374 610.192,140.051374 C610.192,139.156374 610.52,138.372374 611.179,137.700374 C611.836,137.029374 612.614,136.693374 613.507,136.693374 C614.431,136.693374 615.221,137.029374 615.88,137.700374 C616.536,138.372374 616.868,139.156374 616.868,140.051374 C616.868,140.947374 616.536,141.723374 615.88,142.380374 C615.221,143.038374 614.431,143.367374 613.507,143.367374 L613.507,143.367374 Z" id="Fill-156" fill="#FFFFFF"></path>
                <path d="M634.4949,145.298674 C636.7889,145.298674 638.6849,146.067674 640.1829,147.606674 C641.6809,149.145674 642.4289,151.272674 642.4289,153.987674 L642.4289,166.874674 L637.0139,166.874674 L637.0139,154.659674 C637.0139,153.259674 636.6369,152.190674 635.8809,151.447674 C635.1239,150.705674 634.1179,150.335674 632.8569,150.335674 C631.4589,150.335674 630.3409,150.769674 629.4989,151.637674 C628.6609,152.504674 628.2409,153.805674 628.2409,155.540674 L628.2409,166.874674 L622.8269,166.874674 L622.8269,145.884674 L628.2409,145.884674 L628.2409,148.236674 C629.5569,146.278674 631.6419,145.298674 634.4949,145.298674" id="Fill-157" fill="#FFFFFF"></path>
                <path d="M653.219,154.406974 L663.924,154.406974 C663.614,152.979974 662.979,151.916974 662.013,151.215974 C661.047,150.517974 659.95,150.167974 658.719,150.167974 C657.263,150.167974 656.06,150.538974 655.109,151.279974 C654.155,152.021974 653.526,153.063974 653.219,154.406974 L653.219,154.406974 Z M653.304,158.604974 C654.03,161.235974 656.002,162.550974 659.22,162.550974 C661.293,162.550974 662.861,161.851974 663.924,160.451974 L668.288,162.969974 C666.218,165.965974 663.168,167.462974 659.138,167.462974 C655.668,167.462974 652.882,166.412974 650.785,164.314974 C648.685,162.214974 647.637,159.570974 647.637,156.380974 C647.637,153.216974 648.67,150.580974 650.743,148.467974 C652.812,146.354974 655.471,145.298974 658.719,145.298974 C661.797,145.298974 664.334,146.361974 666.337,148.487974 C668.336,150.614974 669.339,153.245974 669.339,156.380974 C669.339,157.078974 669.269,157.821974 669.129,158.604974 L653.304,158.604974 Z" id="Fill-158" fill="#FFFFFF"></path>
                <path d="M679.0748,154.406974 L689.7798,154.406974 C689.4728,152.979974 688.8348,151.916974 687.8718,151.215974 C686.9058,150.517974 685.8058,150.167974 684.5748,150.167974 C683.1198,150.167974 681.9158,150.538974 680.9648,151.279974 C680.0138,152.021974 679.3848,153.063974 679.0748,154.406974 L679.0748,154.406974 Z M679.1598,158.604974 C679.8858,161.235974 681.8608,162.550974 685.0788,162.550974 C687.1488,162.550974 688.7168,161.851974 689.7798,160.451974 L694.1468,162.969974 C692.0738,165.965974 689.0268,167.462974 684.9938,167.462974 C681.5238,167.462974 678.7408,166.412974 676.6408,164.314974 C674.5408,162.214974 673.4928,159.570974 673.4928,156.380974 C673.4928,153.216974 674.5288,150.580974 676.5988,148.467974 C678.6708,146.354974 681.3298,145.298974 684.5748,145.298974 C687.6528,145.298974 690.1938,146.361974 692.1958,148.487974 C694.1948,150.614974 695.1948,153.245974 695.1948,156.380974 C695.1948,157.078974 695.1248,157.821974 694.9848,158.604974 L679.1598,158.604974 Z" id="Fill-159" fill="#FFFFFF"></path>
                <path d="M706.0246,149.496574 C706.5286,148.151574 707.3616,147.144574 708.5226,146.473574 C709.6836,145.801574 710.9806,145.465574 712.4056,145.465574 L712.4056,151.511574 C710.7556,151.315574 709.2786,151.650574 707.9786,152.518574 C706.6776,153.385574 706.0246,154.826574 706.0246,156.842574 L706.0246,166.874574 L700.6096,166.874574 L700.6096,145.885574 L706.0246,145.885574 L706.0246,149.496574 Z" id="Fill-160" fill="#FFFFFF"></path>
                <path d="M721.5552,151.846974 C721.5552,152.405974 721.9262,152.861974 722.6672,153.210974 C723.4092,153.560974 724.3112,153.868974 725.3752,154.134974 C726.4382,154.400974 727.5022,154.736974 728.5652,155.141974 C729.6292,155.547974 730.5312,156.226974 731.2732,157.177974 C732.0142,158.128974 732.3852,159.318974 732.3852,160.745974 C732.3852,162.901974 731.5832,164.558974 729.9722,165.719974 C728.3622,166.880974 726.3562,167.462974 723.9502,167.462974 C719.6382,167.462974 716.6992,165.796974 715.1342,162.466974 L719.8352,159.821974 C720.4492,161.641974 721.8222,162.550974 723.9502,162.550974 C725.8792,162.550974 726.8452,161.948974 726.8452,160.745974 C726.8452,160.186974 726.4752,159.731974 725.7332,159.380974 C724.9922,159.031974 724.0892,158.716974 723.0262,158.437974 C721.9622,158.157974 720.8992,157.806974 719.8352,157.387974 C718.7722,156.968974 717.8692,156.302974 717.1282,155.392974 C716.3862,154.484974 716.0162,153.343974 716.0162,151.972974 C716.0162,149.901974 716.7782,148.271974 718.3042,147.081974 C719.8262,145.892974 721.7252,145.298974 723.9892,145.298974 C725.6972,145.298974 727.2492,145.682974 728.6502,146.451974 C730.0482,147.221974 731.1542,148.320974 731.9662,149.746974 L727.3502,152.265974 C726.6782,150.839974 725.5572,150.125974 723.9892,150.125974 C723.2902,150.125974 722.7102,150.278974 722.2482,150.586974 C721.7862,150.895974 721.5552,151.314974 721.5552,151.846974" id="Fill-161" fill="#FFFFFF"></path>
                <path d="M193.7454,32.9555737 C172.5054,31.3635737 161.8844,39.3505737 161.8844,57.9585737 L193.7454,57.9585737 L193.7454,90.8605737 L161.8844,90.8605737 L161.8844,166.162574 L126.9034,166.162574 L126.9034,90.8605737 L126.9034,57.9585737 L126.9034,56.4655737 C126.9034,35.2575737 131.7134,23.5415737 144.1124,13.1895737 C156.4684,2.87357368 170.2984,-1.12642632 193.7454,0.268573682 L193.7454,32.9555737 Z" id="Fill-162" fill="#FFFFFF"></path>
                <path d="M96.622,39.2964737 C92.569,43.3514737 87.699,45.3774737 82.013,45.3774737 C76.327,45.3774737 71.457,43.3514737 67.404,39.2964737 C63.349,35.2434737 61.323,30.3734737 61.323,24.6874737 C61.323,19.0014737 63.349,14.1314737 67.404,10.0784737 C71.457,6.02447368 76.327,3.99747368 82.013,3.99747368 C87.699,3.99747368 92.569,6.02447368 96.622,10.0784737 C100.677,14.1314737 102.728,19.0014737 102.728,24.6874737 C102.728,30.3734737 100.677,35.2434737 96.622,39.2964737" id="Fill-163" fill="#4856F6"></path>
                <polygon id="Fill-164" fill="#FFFFFF" points="64.566 166.161374 99.485 166.161374 99.485 57.8703737 64.566 57.8703737"></polygon>
                <polygon id="Fill-165" fill="#FFFFFF" points="1.13686838e-13 166.161374 34.919 166.161374 34.919 3.99737368 1.13686838e-13 3.99737368"></polygon>
                <path d="M232.3697,100.672874 C233.8477,95.2308737 235.2367,92.1478737 239.4407,89.0678737 C243.9627,85.7388737 249.7007,84.1438737 256.5437,84.3358737 C262.2887,84.4958737 267.4457,86.2908737 271.8677,89.6788737 C275.9197,92.7858737 277.0777,95.9278737 278.2657,101.944874 L232.3697,100.672874 Z M294.9367,73.8188737 C285.2947,62.9768737 272.6577,57.2658737 257.3747,56.8438737 C241.3037,56.3938737 227.7877,61.3438737 217.2217,71.5388737 C206.6517,81.7378737 201.0717,94.8548737 200.6377,110.522874 C200.1987,126.324874 205.1137,139.763874 215.2427,150.469874 C225.3567,161.158874 239.1887,166.821874 256.3597,167.296874 C257.0817,167.315874 257.7937,167.325874 258.5067,167.325874 C277.4437,167.325874 292.2647,160.213874 302.5757,146.170874 L303.2687,145.225874 L280.4777,131.222874 L279.8817,131.961874 C275.1197,137.856874 268.8417,140.161874 258.1577,139.846874 C243.0337,139.429874 235.0687,134.471874 231.8297,123.336874 L306.3647,125.401874 L307.2687,125.425874 L307.4527,124.541874 C308.2477,120.717874 308.6987,117.009874 308.7957,113.518874 C309.2247,98.0218737 304.5627,84.6628737 294.9367,73.8188737 L294.9367,73.8188737 Z" id="Fill-166" fill="#FFFFFF"></path>
            </g>
        </g>
    </g>
</svg>